<svg width="949" height="136" viewBox="0 0 949 136" version="1.1" xmlns="http://www.w3.org/2000/svg" xmlns:xlink="http://www.w3.org/1999/xlink" xmlns:figma="http://www.figma.com/figma/ns">
<title>Group</title>
<desc>Created using Figma</desc>
<g id="Canvas" transform="translate(150 148)" figma:type="canvas">
<g id="Group" figma:type="frame">
<g id="cdrawing12" figma:type="frame">
<g id="layer1" figma:type="frame">
<g id="g5644" figma:type="frame">
<g id="rect5626" figma:type="vector">
<use xlink:href="#path0_fill" transform="matrix(0.474126 0.474126 -0.474126 0.474126 -82.1177 -148)" fill="#FFFFFF"/>
</g>
<g id="rect5628" figma:type="vector">
<use xlink:href="#path0_fill" transform="matrix(0.474126 0.474126 -0.474126 0.474126 -58.1593 -124.042)" fill="#FFFFFF"/>
</g>
<g id="rect5630" figma:type="vector">
<use xlink:href="#path1_fill" transform="matrix(0.474126 0.474126 -0.474126 0.474126 -34.2009 -100.083)" fill="#FFFFFF"/>
</g>
<g id="rect5632" figma:type="vector">
<use xlink:href="#path0_fill" transform="matrix(0.474126 0.474126 -0.474126 0.474126 -106.076 -124.042)" fill="#FFFFFF"/>
</g>
<g id="rect5636" figma:type="vector">
<use xlink:href="#path1_fill" transform="matrix(0.474126 0.474126 -0.474126 0.474126 -58.1593 -76.1247)" fill="#FFFFFF"/>
</g>
<g id="rect5638" figma:type="vector">
<use xlink:href="#path0_fill" transform="matrix(0.474126 0.474126 -0.474126 0.474126 -130.035 -100.083)" fill="#FFFFFF"/>
</g>
<g id="rect5640" figma:type="vector">
<use xlink:href="#path0_fill" transform="matrix(0.474126 0.474126 -0.474126 0.474126 -106.076 -76.1247)" fill="#FFFFFF"/>
</g>
<g id="rect5642" figma:type="vector">
<use xlink:href="#path1_fill" transform="matrix(0.474126 0.474126 -0.474126 0.474126 -82.1178 -52.1662)" fill="#FFFFFF"/>
</g>
</g>
</g>
</g>
<g id="CORNERSTONE" figma:type="text">
<use xlink:href="#path2_fill" transform="translate(-41 -176)" fill="#FFFFFF"/>
</g>
</g>
</g>
<defs>
<path id="path0_fill" d="M 42.1098 3.19114e-06L 3.9478e-06 3.19114e-06L 3.9478e-06 42.1099L 42.1098 42.1099L 42.1098 3.19114e-06Z"/>
<path id="path1_fill" d="M 42.1098 3.19114e-06L 3.9478e-06 3.19114e-06L 3.9478e-06 42.1099L 42.1098 42.1099L 42.1098 3.19114e-06Z"/>
<path id="path2_fill" d="M 47.616 137.24C 33.1493 137.24 22.1133 133.727 14.508 126.7C 6.90267 119.591 3.1 109.505 3.1 96.444C 3.1 82.9693 6.82 72.6773 14.26 65.568C 21.7827 58.4587 32.86 54.904 47.492 54.904C 52.204 54.904 56.4613 55.276 60.264 56.02C 64.1493 56.6813 68.0347 57.7147 71.92 59.12L 71.92 79.456C 64.8107 76.3147 57.2053 74.744 49.104 74.744C 41.4987 74.744 35.8773 76.48 32.24 79.952C 28.6853 83.424 26.908 88.9213 26.908 96.444C 26.908 103.719 28.768 109.051 32.488 112.44C 36.2907 115.747 41.912 117.4 49.352 117.4C 57.536 117.4 65.1413 115.871 72.168 112.812L 72.168 133.272C 64.48 135.917 56.296 137.24 47.616 137.24ZM 119.216 137.24C 105.742 137.24 95.5736 133.975 88.7123 127.444C 81.851 120.831 78.4203 110.456 78.4203 96.32C 78.4203 81.7707 81.8096 71.2307 88.5883 64.7C 95.4496 58.1693 105.659 54.904 119.216 54.904C 132.774 54.904 142.942 58.2107 149.72 64.824C 156.582 71.3547 160.012 81.8533 160.012 96.32C 160.012 110.373 156.582 120.707 149.72 127.32C 142.859 133.933 132.691 137.24 119.216 137.24ZM 119.216 117.4C 125.168 117.4 129.467 115.747 132.112 112.44C 134.84 109.051 136.204 103.677 136.204 96.32C 136.204 88.5493 134.882 83.0107 132.236 79.704C 129.591 76.3973 125.251 74.744 119.216 74.744C 113.182 74.744 108.842 76.3973 106.196 79.704C 103.551 83.0107 102.228 88.5493 102.228 96.32C 102.228 103.677 103.551 109.051 106.196 112.44C 108.924 115.747 113.264 117.4 119.216 117.4ZM 168.693 56.144L 210.233 56.144C 219.657 56.144 226.767 58.7067 231.561 63.832C 236.356 68.9573 238.753 75.86 238.753 84.54C 238.753 89.8307 237.431 94.5427 234.785 98.676C 232.14 102.727 228.544 105.868 223.997 108.1C 224.907 108.844 225.692 109.712 226.353 110.704C 227.015 111.696 227.759 113.143 228.585 115.044L 237.761 136L 213.457 136L 205.025 116.78C 204.364 115.292 203.537 114.259 202.545 113.68C 201.636 113.019 200.313 112.688 198.577 112.688L 192.005 112.688L 192.005 136L 168.693 136L 168.693 56.144ZM 204.281 94.832C 207.671 94.832 210.275 93.964 212.093 92.228C 213.995 90.4093 214.945 87.8467 214.945 84.54C 214.945 77.5133 211.639 74 205.025 74L 192.005 74L 192.005 94.832L 204.281 94.832ZM 247.404 56.144L 267.244 56.144L 297.376 98.428L 297.376 56.144L 320.688 56.144L 320.688 136L 300.724 136L 270.716 93.84L 270.716 136L 247.404 136L 247.404 56.144ZM 331.807 56.144L 392.319 56.144L 392.319 74L 355.119 74L 355.119 87.02L 387.731 87.02L 387.731 105.124L 355.119 105.124L 355.119 118.144L 392.319 118.144L 392.319 136L 331.807 136L 331.807 56.144ZM 399.74 56.144L 441.28 56.144C 450.704 56.144 457.813 58.7067 462.608 63.832C 467.403 68.9573 469.8 75.86 469.8 84.54C 469.8 89.8307 468.477 94.5427 465.832 98.676C 463.187 102.727 459.591 105.868 455.044 108.1C 455.953 108.844 456.739 109.712 457.4 110.704C 458.061 111.696 458.805 113.143 459.632 115.044L 468.808 136L 444.504 136L 436.072 116.78C 435.411 115.292 434.584 114.259 433.592 113.68C 432.683 113.019 431.36 112.688 429.624 112.688L 423.052 112.688L 423.052 136L 399.74 136L 399.74 56.144ZM 435.328 94.832C 438.717 94.832 441.321 93.964 443.14 92.228C 445.041 90.4093 445.992 87.8467 445.992 84.54C 445.992 77.5133 442.685 74 436.072 74L 423.052 74L 423.052 94.832L 435.328 94.832ZM 504.615 137.24C 499.159 137.24 494.034 136.827 489.239 136C 484.444 135.091 480.394 133.851 477.087 132.28L 477.087 113.06C 480.89 114.796 485.064 116.201 489.611 117.276C 494.158 118.351 498.374 118.888 502.259 118.888C 506.723 118.888 509.906 118.516 511.807 117.772C 513.791 116.945 514.783 115.375 514.783 113.06C 514.783 111.572 514.287 110.373 513.295 109.464C 512.386 108.472 511.022 107.645 509.203 106.984C 507.384 106.24 504.491 105.248 500.523 104.008C 499.2 103.677 498.208 103.388 497.547 103.14C 492.091 101.404 487.792 99.5027 484.651 97.436C 481.592 95.3693 479.36 92.8893 477.955 89.996C 476.632 87.02 475.971 83.3413 475.971 78.96C 475.971 71.1067 478.782 65.1547 484.403 61.104C 490.024 56.9707 498.291 54.904 509.203 54.904C 513.419 54.904 517.842 55.276 522.471 56.02C 527.183 56.6813 531.068 57.508 534.127 58.5L 534.127 77.844C 526.852 74.9507 519.784 73.504 512.923 73.504C 508.542 73.504 505.235 73.8347 503.003 74.496C 500.854 75.1573 499.779 76.604 499.779 78.836C 499.779 80.2413 500.234 81.3573 501.143 82.184C 502.052 83.0107 503.416 83.7547 505.235 84.416C 507.136 84.9947 510.319 85.8627 514.783 87.02C 521.148 88.756 526.026 90.864 529.415 93.344C 532.887 95.7413 535.284 98.5107 536.607 101.652C 537.93 104.793 538.591 108.596 538.591 113.06C 538.591 120.5 535.698 126.411 529.911 130.792C 524.207 135.091 515.775 137.24 504.615 137.24ZM 561.568 73.504L 539.124 73.504L 539.124 56.144L 607.324 56.144L 607.324 73.504L 584.88 73.504L 584.88 136L 561.568 136L 561.568 73.504ZM 645.005 137.24C 631.531 137.24 621.363 133.975 614.501 127.444C 607.64 120.831 604.209 110.456 604.209 96.32C 604.209 81.7707 607.599 71.2307 614.377 64.7C 621.239 58.1693 631.448 54.904 645.005 54.904C 658.563 54.904 668.731 58.2107 675.509 64.824C 682.371 71.3547 685.801 81.8533 685.801 96.32C 685.801 110.373 682.371 120.707 675.509 127.32C 668.648 133.933 658.48 137.24 645.005 137.24ZM 645.005 117.4C 650.957 117.4 655.256 115.747 657.901 112.44C 660.629 109.051 661.993 103.677 661.993 96.32C 661.993 88.5493 660.671 83.0107 658.025 79.704C 655.38 76.3973 651.04 74.744 645.005 74.744C 638.971 74.744 634.631 76.3973 631.985 79.704C 629.34 83.0107 628.017 88.5493 628.017 96.32C 628.017 103.677 629.34 109.051 631.985 112.44C 634.713 115.747 639.053 117.4 645.005 117.4ZM 694.482 56.144L 714.322 56.144L 744.454 98.428L 744.454 56.144L 767.766 56.144L 767.766 136L 747.802 136L 717.794 93.84L 717.794 136L 694.482 136L 694.482 56.144ZM 778.885 56.144L 839.397 56.144L 839.397 74L 802.197 74L 802.197 87.02L 834.809 87.02L 834.809 105.124L 802.197 105.124L 802.197 118.144L 839.397 118.144L 839.397 136L 778.885 136L 778.885 56.144Z"/>
</defs>
</svg>
